# Blender 3.4.1
# www.blender.org
mtllib book.mtl
o Cube
v -1.000000 0.088813 1.241289
v -1.000000 0.154935 1.234029
v -1.000000 -0.047093 0.003524
v -1.000000 0.019029 -0.003736
v 1.000000 0.088813 1.241289
v 1.000000 0.154935 1.234029
v 1.000000 -0.047093 0.003524
v 1.000000 0.019029 -0.003736
vn -1.0000 -0.0000 -0.0000
vn -0.0000 -0.1091 -0.9940
vn 1.0000 -0.0000 -0.0000
vn -0.0000 0.1091 0.9940
vn -0.0000 -0.9940 0.1091
vn -0.0000 0.9940 -0.1091
vt 0.758829 0.349972
vt 0.736606 0.325828
vt 0.758960 0.326318
vt 0.956840 0.349972
vt 0.750947 0.325828
vt 0.728397 0.328265
vt 0.758829 0.331261
vt 0.961277 0.039444
vt 0.758960 0.041347
vt 0.956840 0.331261
vt 0.974723 0.039444
vt 0.728397 0.039572
vt 0.760434 0.034345
vt 0.736606 0.040684
vt 0.953806 0.326318
vt 0.953789 0.034345
vt 0.750947 0.040684
vt 0.532793 0.328265
vt 0.961277 0.324826
vt 0.760434 0.015502
vt 0.953806 0.041347
vt 0.974723 0.324826
vt 0.953789 0.015502
vt 0.532793 0.039572
s 0
f 1/1/1 2/4/1 4/10/1 3/7/1
f 3/8/2 4/11/2 8/22/2 7/19/2
f 7/20/3 8/23/3 6/16/3 5/13/3
f 5/14/4 6/17/4 2/5/4 1/2/4
f 3/9/5 7/21/5 5/15/5 1/3/5
f 8/24/6 4/12/6 2/6/6 6/18/6
o Cube.001
v -1.000000 -0.016441 0.115146
v -1.000000 -0.060343 0.115146
v -1.000000 -0.016441 -0.115146
v -1.000000 -0.060343 -0.115146
v 1.000000 -0.016441 0.115146
v 1.000000 -0.060343 0.115146
v 1.000000 -0.016441 -0.115146
v 1.000000 -0.060343 -0.115146
vn -1.0000 -0.0000 -0.0000
vn -0.0000 -0.0000 -1.0000
vn 1.0000 -0.0000 -0.0000
vn -0.0000 -0.0000 1.0000
vn -0.0000 1.0000 -0.0000
vn -0.0000 -1.0000 -0.0000
vt 0.961422 0.797724
vt 0.953315 0.739604
vt 0.952394 0.898122
vt 0.961472 0.752612
vt 0.953337 0.719665
vt 0.952056 0.752323
vt 0.980927 0.797746
vt 0.535734 0.833132
vt 0.528027 0.897649
vt 0.980977 0.752634
vt 0.535757 0.812227
vt 0.531150 0.751854
vt 0.525014 0.800235
vt 0.532841 0.739136
vt 0.952453 0.844596
vt 0.525070 0.749129
vt 0.532863 0.719197
vt 0.952003 0.799992
vt 0.949291 0.833593
vt 0.507761 0.800216
vt 0.528086 0.844124
vt 0.949314 0.812687
vt 0.507818 0.749110
vt 0.531096 0.799523
s 0
f 9/25/7 11/31/7 12/34/7 10/28/7
f 11/32/8 15/43/8 16/46/8 12/35/8
f 15/44/9 13/37/9 14/40/9 16/47/9
f 13/38/10 9/26/10 10/29/10 14/41/10
f 11/33/11 9/27/11 13/39/11 15/45/11
f 16/48/12 14/42/12 10/30/12 12/36/12
o Cube.002
v -1.000000 -0.047441 0.001196
v -1.000000 0.018680 0.008461
v -1.000000 0.088553 -1.236559
v -1.000000 0.154674 -1.229294
v 1.000000 -0.047441 0.001196
v 1.000000 0.018680 0.008461
v 1.000000 0.088553 -1.236559
v 1.000000 0.154674 -1.229294
vn -1.0000 -0.0000 -0.0000
vn -0.0000 0.1092 -0.9940
vn 1.0000 -0.0000 -0.0000
vn -0.0000 -0.1092 0.9940
vn -0.0000 -0.9940 -0.1092
vn -0.0000 0.9940 0.1092
vt 0.734897 0.391233
vt 0.759902 0.687639
vt 0.764143 0.662943
vt 0.751825 0.391233
vt 0.951299 0.687639
vt 0.726320 0.662560
vt 0.734897 0.658620
vt 0.963137 0.386198
vt 0.764143 0.385741
vt 0.751825 0.658620
vt 0.980024 0.386198
vt 0.726320 0.387995
vt 0.765839 0.375627
vt 0.759902 0.670053
vt 0.954189 0.662943
vt 0.952844 0.375627
vt 0.951299 0.670053
vt 0.536274 0.662560
vt 0.963137 0.664006
vt 0.765839 0.362529
vt 0.954189 0.385741
vt 0.980024 0.664006
vt 0.952844 0.362529
vt 0.536274 0.387995
s 0
f 17/49/13 18/52/13 20/58/13 19/55/13
f 19/56/14 20/59/14 24/70/14 23/67/14
f 23/68/15 24/71/15 22/64/15 21/61/15
f 21/62/16 22/65/16 18/53/16 17/50/16
f 19/57/17 23/69/17 21/63/17 17/51/17
f 24/72/18 20/60/18 18/54/18 22/66/18
o Cube.003
v -0.856076 0.139100 1.053568
v -0.856076 0.151782 1.052175
v -0.856076 0.023353 -0.000596
v -0.856076 0.036036 -0.001988
v 0.856076 0.139100 1.053568
v 0.856076 0.151782 1.052175
v 0.856076 0.023353 -0.000596
v 0.856076 0.036036 -0.001988
vn -1.0000 -0.0000 -0.0000
vn -0.0000 -0.1091 -0.9940
vn 1.0000 -0.0000 -0.0000
vn -0.0000 0.1091 0.9940
vn -0.0000 -0.9940 0.1091
vn -0.0000 0.9940 -0.1091
vt 0.032782 0.343880
vt 0.022149 0.335526
vt 0.275754 0.331914
vt 0.242054 0.343880
vt 0.016856 0.335526
vt 0.241746 0.336506
vt 0.032782 0.350468
vt 0.246210 0.035161
vt 0.275754 0.033697
vt 0.242054 0.350468
vt 0.258363 0.035161
vt 0.241746 0.034418
vt 0.031661 0.025517
vt 0.022149 0.034259
vt 0.485026 0.331914
vt 0.242171 0.025517
vt 0.016856 0.034259
vt 0.032473 0.336506
vt 0.246210 0.335410
vt 0.031661 0.015824
vt 0.485026 0.033697
vt 0.258363 0.335410
vt 0.242171 0.015824
vt 0.032473 0.034418
s 0
f 25/73/19 26/76/19 28/82/19 27/79/19
f 27/80/20 28/83/20 32/94/20 31/91/20
f 31/92/21 32/95/21 30/88/21 29/85/21
f 29/86/22 30/89/22 26/77/22 25/74/22
f 27/81/23 31/93/23 29/87/23 25/75/23
f 32/96/24 28/84/24 26/78/24 30/90/24
o Cube.005
v -0.856076 0.011426 -0.006140
v -0.856076 0.051837 -0.001703
v -0.856076 0.130691 -1.092348
v -0.856076 0.171102 -1.087911
v 0.856076 0.011426 -0.006140
v 0.856076 0.051837 -0.001703
v 0.856076 0.130691 -1.092348
v 0.856076 0.171102 -1.087911
v -0.856076 0.016557 -0.025793
v -0.856076 0.056968 -0.021356
v 0.856076 0.016557 -0.025793
v 0.856076 0.056968 -0.021356
vn -1.0000 -0.0000 -0.0000
vn -0.0000 0.1091 -0.9940
vn 1.0000 -0.0000 -0.0000
vn -0.0000 -0.1091 0.9940
vn -0.0000 -0.9676 -0.2526
vn -0.0000 0.9676 0.2526
vn -0.0000 0.9943 0.1064
vn -0.0000 -0.9943 -0.1064
vt 0.008312 0.681772
vt 0.125000 0.750000
vt 0.029777 0.688724
vt 0.022085 0.681772
vt 0.041715 0.680109
vt 0.042158 0.688724
vt 0.052400 0.702189
vt 0.268357 0.404146
vt 0.277852 0.401969
vt 0.244219 0.702189
vt 0.254835 0.404146
vt 0.244396 0.401984
vt 0.031194 0.397427
vt 0.008312 0.401772
vt 0.375000 0.750000
vt 0.042628 0.397427
vt 0.022085 0.401772
vt 0.030574 0.680109
vt 0.268357 0.680579
vt 0.469671 0.401969
vt 0.053344 0.375707
vt 0.254835 0.680579
vt 0.052577 0.401984
vt 0.245163 0.375707
vt 0.052400 0.691448
vt 0.125000 0.625000
vt 0.277852 0.679717
vt 0.029777 0.724560
vt 0.244219 0.691448
vt 0.041715 0.400810
vt 0.244396 0.681590
vt 0.042158 0.724560
vt 0.031194 0.364402
vt 0.375000 0.625000
vt 0.469671 0.679717
vt 0.053344 0.390665
vt 0.042628 0.364402
vt 0.030574 0.400810
vt 0.052577 0.681590
vt 0.245163 0.390665
s 0
f 41/121/25 42/125/25 36/106/25 35/103/25
f 35/104/26 36/107/26 40/118/26 39/115/26
f 43/129/27 44/133/27 38/112/27 37/109/27
f 37/110/28 38/113/28 34/100/28 33/97/28
f 41/122/29 43/130/29 37/111/29 33/98/29
f 44/134/30 42/126/30 34/101/30 38/114/30
f 40/119/31 36/108/31 42/127/31 44/135/31
f 35/105/32 39/116/32 43/131/32 41/123/32
f 39/117/27 40/120/27 44/136/27 43/132/27
f 33/99/25 34/102/25 42/128/25 41/124/25
